<svg width="100" height="100" viewBox="0 0 100 100" fill="none" xmlns="http://www.w3.org/2000/svg">
<g clip-path="url(#clip0_51_561)">
<path fill-rule="evenodd" clip-rule="evenodd" d="M67.0025 48.2036H89.462C92.5063 48.2036 95 50.7101 95 53.77V76.589C95 79.6489 92.5063 82.1554 89.462 82.1554H67.0025C57.7159 82.1554 50.1133 74.5138 50.1133 65.1795C50.1214 55.8371 57.7078 48.2036 67.0025 48.2036ZM41.5392 16.4165L45.215 19.9077L53.1738 11.7941C53.8782 11.078 54.3154 10.5083 55.1817 11.3953L57.9831 14.2843C58.9061 15.1958 58.8575 15.7329 57.9912 16.5874L46.8181 27.1831C44.9883 28.9897 45.3041 29.0955 43.45 27.2482L36.8271 21.0715C36.4385 20.6483 36.4789 20.2251 36.9081 19.8019L40.1628 16.4084C40.6405 15.8957 41.0291 15.9282 41.5392 16.4165ZM13.8899 21.397H28.2206C28.1963 20.9901 28.1801 20.5832 28.1801 20.1681C28.1882 9.0516 37.151 0.034668 48.2188 0.034668C59.2785 0.034668 68.2494 9.0516 68.2494 20.1681C68.2494 20.575 68.2332 20.9819 68.217 21.3888L73.4878 21.3807C78.8719 21.3726 83.2764 25.6125 83.2764 31.0243V32.6356C85.932 34.4015 87.6889 37.4289 87.6889 40.8468V44.395H81.4708V42.0269C81.4708 39.4797 79.3982 37.4045 76.8721 37.4045H19.6707V32.2531C19.6707 31.5695 20.2294 31.008 20.9095 31.008H31.3377C30.6495 29.9338 30.0666 28.7863 29.5889 27.5819H15.2744C13.4932 27.5819 12.0439 29.0467 12.0439 30.8289V89.9354C12.0439 91.7258 13.5013 93.1825 15.2744 93.1825H78.1837C79.9649 93.1825 81.4142 91.7176 81.4142 89.9354V86.2163H87.7942V92.3605H87.778C87.7537 96.6086 83.244 100.035 78.7909 100.035H13.8656C8.99154 100.027 5 96.0145 5 91.1154V30.3325C5 25.4172 8.99964 21.397 13.8899 21.397ZM66.8406 27.5737C66.3629 28.7782 65.78 29.9256 65.0918 30.9998H77.8841C78.2404 30.9998 78.5885 31.0161 78.9367 31.0568V30.8208C78.9367 29.0304 77.4793 27.5737 75.7062 27.5737H66.8406ZM67.8526 54.4211H87.778V75.938H67.8526C61.9665 75.938 57.1492 71.0959 57.1492 65.1795C57.1492 59.2551 61.9665 54.4211 67.8526 54.4211ZM72.751 61.6151C74.767 61.6151 76.4025 63.259 76.4025 65.2853C76.4025 67.3117 74.767 68.9556 72.751 68.9556C70.735 68.9556 69.0995 67.3117 69.0995 65.2853C69.0995 63.259 70.735 61.6151 72.751 61.6151Z" fill="white"/>
</g>
<defs>
<clipPath id="clip0_51_561">
<rect width="100" height="100" fill="white"/>
</clipPath>
</defs>
</svg>
