<svg width="98" height="97" viewBox="0 0 98 97" fill="none" xmlns="http://www.w3.org/2000/svg">
<g clip-path="url(#clip0_39_169)">
<mask id="mask0_39_169" style="mask-type:luminance" maskUnits="userSpaceOnUse" x="0" y="0" width="98" height="97">
<path d="M98 0H0V96.4174H98V0Z" fill="white"/>
</mask>
<g mask="url(#mask0_39_169)">
<path d="M41.4395 69.6865C28.8066 68.1485 19.9062 59.0172 19.9062 47.1945C19.9062 42.3886 21.6289 37.1981 24.5 33.7379C23.2559 30.5659 23.4473 23.8376 24.8828 21.0501C28.7109 20.5695 33.8789 22.588 36.9414 25.3755C40.5781 24.2221 44.4062 23.6454 49.0957 23.6454C53.7852 23.6454 57.6133 24.2221 61.0586 25.2793C64.0254 22.588 69.2891 20.5695 73.1172 21.0501C74.457 23.6454 74.6484 30.3737 73.4043 33.6417C76.4668 37.2942 78.0937 42.1964 78.0937 47.1945C78.0937 59.0172 69.1934 67.9563 56.3691 69.5904C59.623 71.7049 61.8242 76.3187 61.8242 81.6053V91.6016C61.8242 94.4852 64.2168 96.1192 67.0879 94.9658C84.4102 88.3336 98 70.936 98 49.4053C98 22.2035 75.9883 2.39677e-07 48.9043 0C21.8203 -2.39677e-07 2.3864e-07 22.2035 0 49.4053C-1.87201e-07 70.7437 13.4941 88.4297 31.6777 95.0619C34.2617 96.0231 36.75 94.293 36.75 91.6978V84.0082C35.4102 84.585 33.6875 84.9694 32.1562 84.9694C25.8398 84.9694 22.1074 81.5092 19.4277 75.0691C18.375 72.4739 17.2266 70.936 15.0254 70.6476C13.877 70.5515 13.4941 70.0709 13.4941 69.4942C13.4941 68.3407 15.4082 67.4757 17.3223 67.4757C20.0977 67.4757 22.4902 69.2059 24.9785 72.7623C26.8926 75.5498 28.9023 76.7993 31.2949 76.7993C33.6875 76.7993 35.2187 75.9342 37.4199 73.7234C39.0469 72.0894 40.291 70.6476 41.4395 69.6865Z" fill="white"/>
</g>
</g>
<defs>
<clipPath id="clip0_39_169">
<rect width="98" height="96.4174" fill="white"/>
</clipPath>
</defs>
</svg>
