<svg width="75" height="94" viewBox="0 0 75 94" fill="none" xmlns="http://www.w3.org/2000/svg">
<g clip-path="url(#clip0_39_135)">
<path d="M19.8017 -2.90735C19.3174 -2.8922 18.7958 -2.71231 18.2042 -2.24207C16.7552 -2.80487 15.35 -3.00018 14.0934 -1.85474C12.1529 -2.10791 11.5224 -1.58533 11.0446 -0.974867C10.6186 -0.983682 7.85716 -1.41563 6.59098 0.485994C3.4087 0.106936 2.40276 2.37054 3.54224 4.48098C2.89232 5.49391 2.21886 6.49445 3.73872 8.42555C3.201 9.50102 3.5343 10.6677 4.80103 12.0798C4.46663 13.5916 5.12394 14.6582 6.30228 15.4896C6.08172 17.5585 8.18691 18.7612 8.81549 19.1901C9.05685 20.3956 9.55982 21.5331 11.9644 22.1623C12.3609 23.9587 13.8061 24.2691 15.2055 24.6463C10.5805 27.3526 6.61397 30.9134 6.64106 39.6505L5.9635 40.8672C0.660423 44.1138 -4.11095 54.5486 3.35014 63.0303C3.83751 65.6851 4.6549 67.5922 5.38254 69.7027C6.47112 78.2075 13.5748 82.1895 15.4482 82.6603C18.194 84.765 21.118 86.7627 25.075 88.1619C28.8051 92.0351 32.8464 93.5109 36.9096 93.5084C36.9692 93.5084 37.0297 93.5092 37.0894 93.5084C41.1528 93.5109 45.1938 92.0349 48.9242 88.1619C52.8809 86.7627 55.8054 84.765 58.551 82.6595C60.4246 82.1887 67.5283 78.2067 68.6167 69.7018C69.3443 67.5914 70.1617 65.6843 70.6491 63.0295C78.1101 54.5472 73.339 44.1118 68.0354 40.865L67.357 39.6485C67.3839 30.9123 63.4176 27.3512 58.7926 24.6443C60.1918 24.2672 61.6372 23.957 62.0334 22.1603C64.4377 21.5312 64.9412 20.3937 65.1823 19.1882C65.8109 18.7596 67.9161 17.5568 67.6958 15.4877C68.8742 14.6563 69.5315 13.5897 69.1968 12.0778C70.4635 10.666 70.7971 9.49937 70.2594 8.42362C71.7795 6.49362 71.1049 5.49281 70.4561 4.47988C71.5948 2.36916 70.5897 0.105834 67.4063 0.484892C66.1401 -1.41673 63.3795 -0.984784 62.9526 -0.975969C62.4748 -1.58615 61.8446 -2.10901 59.9044 -1.85585C58.6476 -3.00101 57.2426 -2.8057 55.7934 -2.24317C54.0724 -3.61009 52.9337 -2.51424 51.6331 -2.09992C49.5495 -2.78531 49.0731 -1.84648 48.0493 -1.46412C45.7769 -1.94731 45.0865 -0.895254 43.9971 0.21575L42.7301 0.190406C39.3029 2.22371 37.6003 6.36387 36.9966 8.49194C36.3926 6.36332 34.6941 2.22316 31.2674 0.190406L30.0004 0.21575C28.9097 -0.894978 28.2192 -1.94731 25.9468 -1.46412C24.9237 -1.84593 24.4483 -2.78476 22.3637 -2.09937C21.5099 -2.37127 20.7248 -2.93655 19.8001 -2.90762L19.8017 -2.90735Z" fill="black"/>
<path fill-rule="evenodd" clip-rule="evenodd" d="M48.1141 66.9685V66.8608C48.0815 61.2768 43.1804 56.7758 37.1653 56.8058C31.1508 56.8336 26.2989 61.3845 26.3315 66.9685V67.0759C26.3616 72.6601 31.2654 77.1612 37.2803 77.1309C43.2954 77.1033 48.1445 72.5524 48.1141 66.9685ZM30.9206 38.0873C26.4084 35.1091 19.9034 37.0323 16.3955 42.3765C12.8846 47.7236 13.6973 54.47 18.2125 57.4452C22.725 60.4234 29.227 58.503 32.7379 53.156C36.2461 47.8087 35.4334 41.0625 30.9206 38.0873ZM43.1011 37.5471C38.5886 40.5253 37.7731 47.2718 41.284 52.6163C44.792 57.9634 51.2969 59.8832 55.8094 56.9083C60.3216 53.9301 61.1344 47.1836 57.6265 41.8391C54.1155 36.4921 47.6133 34.5722 43.1011 37.5471ZM8.36413 42.9523C0.280491 47.5996 1.68432 57.9413 6.04604 61.4727C10.0112 63.2443 13.2376 41.6383 8.36413 42.9523ZM64.673 42.6823C59.7992 41.3683 63.028 62.9768 66.9908 61.203C71.3525 57.6739 72.7566 47.3296 64.673 42.6823ZM48.1171 26.5944C45.0194 27.1178 62.9627 42.8917 63.239 39.3711C63.5236 30.1921 56.5264 25.1647 48.1171 26.5944ZM24.8842 26.3244C16.4751 24.8947 9.48063 29.9246 9.76222 39.1039C10.0386 42.6214 27.9819 26.8478 24.8842 26.3244ZM36.9628 24.184C31.9441 24.0517 27.1281 27.9332 27.1171 30.1839C27.1035 32.9196 31.0851 35.7213 36.9987 35.7901C43.0354 35.8342 46.8884 33.5502 46.9076 30.7266C46.9292 27.5283 41.4154 24.1341 36.9628 24.184ZM37.2696 80.2713C32.921 80.1639 26.2521 82.0261 26.3342 84.4118C26.2658 86.0398 31.5694 90.7365 36.9792 90.5023C42.2032 90.5932 47.5999 85.9021 47.5285 83.8275C47.5178 81.69 41.6453 80.0813 37.2696 80.2713ZM21.1078 67.6079C17.5336 63.4316 12.8903 60.941 9.88262 62.7842C7.87102 64.3242 7.5046 69.5662 10.367 74.7177C14.6113 80.8581 20.5851 81.4727 23.0452 79.9796C25.6449 78.0234 24.2249 71.3844 21.1078 67.6079ZM52.8075 66.4065C49.4361 70.3817 47.5616 77.6323 50.0192 79.9656C52.3699 81.781 58.68 81.5275 63.343 75.0152C66.7281 70.6406 65.5927 63.3377 63.6605 61.398C60.7871 59.1614 56.6657 62.0237 52.8075 66.4065Z" fill="white"/>
<path fill-rule="evenodd" clip-rule="evenodd" d="M12.9766 6.03871C20.0508 8.45741 26.432 11.6835 31.7792 16.1212C38.0564 13.1323 33.7276 5.59519 30.6654 2.6035C30.5094 3.39412 30.3346 3.89273 30.1321 4.04149C29.1357 2.94784 28.3202 1.8294 27.0368 0.777075C27.0313 1.39415 27.3405 2.06631 26.5771 2.55666C25.8875 1.60902 24.9571 0.763301 23.7201 0.0470574C24.317 1.09663 23.8241 1.41343 23.504 1.84869C22.5601 1.02225 21.6626 0.184797 19.9219 -0.465332C20.398 0.126946 21.063 0.705451 20.357 1.38588C19.3855 0.766056 18.4089 0.14623 16.099 -0.294536C16.6186 0.297743 17.6971 0.890021 17.0431 1.48505C15.8223 1.00848 14.4732 0.661374 12.9791 0.460275C13.6933 1.06357 14.2899 1.65034 13.7043 2.1159C12.3987 1.70544 10.6011 1.15448 8.84148 1.63106L9.95524 2.77429C10.0784 2.92856 7.35009 2.89275 5.5522 2.9203C6.20896 3.85417 6.87667 4.75223 7.26799 6.35551C7.09012 6.54008 6.19802 6.4354 5.35791 6.35551C6.21991 8.20948 7.71678 8.67779 8.06705 9.47117C7.53891 9.87888 6.80826 9.77419 6.0092 9.49596C6.63039 10.8045 7.93296 11.6998 8.96189 12.7604C8.70192 12.948 8.24766 13.0609 7.17221 12.9312C8.12178 13.9615 9.27112 14.9064 10.6312 15.7548C10.3903 16.0413 9.56119 16.0275 8.79223 16.0471C10.0264 17.281 11.6108 17.9201 13.0995 18.7272C12.3579 19.2451 11.827 19.1239 11.2606 19.1157C12.3111 19.9999 14.1011 20.46 15.7594 20.9917C15.445 21.493 15.13 21.6308 14.4538 21.7713C16.2106 22.7657 18.7285 22.3112 19.4372 22.8184C19.2676 23.317 18.7829 23.6418 18.2031 23.9145C21.0326 24.0825 28.7685 23.8098 30.2516 17.8261C27.3567 14.573 22.0698 10.7577 12.9766 6.03871ZM61.2237 6.03871C52.1333 10.7577 46.8464 14.573 43.9511 17.8264C45.4343 23.8101 53.1702 24.0828 55.9997 23.9148C55.4198 23.642 54.9355 23.317 54.7655 22.8186C55.4743 22.3115 57.9922 22.7663 59.749 21.7715C59.0728 21.6311 58.7581 21.4933 58.4434 20.9919C60.102 20.4603 61.892 20.0002 62.9425 19.1159C62.3761 19.1242 61.8452 19.2454 61.1033 18.7275C62.5917 17.9201 64.1764 17.2813 65.4106 16.0474C64.6413 16.0281 63.8124 16.0416 63.5714 15.7551C64.9317 14.9066 66.0807 13.9617 67.0306 12.9315C65.9551 13.0612 65.5009 12.9483 65.2412 12.7607C66.2701 11.6998 67.5727 10.8048 68.1936 9.49624C67.3945 9.77447 66.6639 9.87915 66.1357 9.47144C66.4857 8.67807 67.9829 8.20975 68.8449 6.35579C68.0048 6.43567 67.1127 6.54036 66.9348 6.35579C67.3261 4.7525 67.9963 3.85169 68.653 2.92057C66.8524 2.89302 64.1244 2.92884 64.2473 2.77457L65.361 1.62858C63.6042 1.152 61.8036 1.70571 60.4983 2.11617C59.9124 1.65062 60.5089 1.06109 61.2229 0.46055C59.729 0.661649 58.3799 1.006 57.1592 1.48257C56.5082 0.890296 57.5836 0.298018 58.1035 -0.29426C55.7937 0.146505 54.8164 0.766331 53.8453 1.38616C53.1392 0.705726 53.8042 0.127222 54.2804 -0.465056C52.5402 0.185072 51.6421 1.02253 50.6983 1.84896C50.3781 1.41371 49.8853 1.09415 50.4818 0.047333C49.2449 0.763576 48.3145 1.60929 47.6276 2.55418C46.8617 2.06383 47.1706 1.39442 47.1679 0.77735C45.882 1.82968 45.0663 2.94812 44.0702 4.04177C43.8704 3.89301 43.6928 3.39439 43.5368 2.60377C40.475 5.59546 36.1455 13.1328 42.4255 16.1215C47.7683 11.6835 54.1498 8.45741 61.2237 6.03871Z" fill="white"/>
</g>
<defs>
<clipPath id="clip0_39_135">
<rect width="75" height="94" fill="white"/>
</clipPath>
</defs>
</svg>
